<?xml version="1.0" standalone="no"?><svg xmlns:xlink="http://www.w3.org/1999/xlink" xmlns="http://www.w3.org/2000/svg" viewBox="0 0 1000 1300.001697130153" preserveAspectRatio="xMaxYMax slice"><g transform="scale(2.8285502548523778)"><rect x="0" y="0" width="353.53846153846155" height="459.6" fill="#ffffff"/><rect x="0" y="0" width="35.35" height="35.35" fill="#a6a3ac"/><polygon points="35.35,0 35.35,35.35 0,35.35" fill="#746e85"/><rect x="35.35" y="0" width="35.35" height="35.35" fill="#b4b0bd"/><rect x="35.35" y="0" width="35.35" height="35.35" fill="#b1adba"/><rect x="70.71" y="0" width="35.35" height="35.35" fill="#e8e8ea"/><rect x="70.71" y="0" width="35.35" height="35.35" fill="#6c6877"/><rect x="106.06" y="0" width="35.35" height="35.35" fill="#8e889c"/><rect x="106.06" y="0" width="35.35" height="35.35" fill="#e2dfe8"/><rect x="141.42" y="0" width="35.35" height="35.35" fill="#ededee"/><rect x="141.42" y="0" width="35.35" height="35.35" fill="#faf9fb"/><rect x="176.77" y="0" width="35.35" height="35.35" fill="#a9a6af"/><polygon points="176.77,0 212.12,0 176.77,35.35" fill="#a09bac"/><rect x="212.12" y="0" width="35.35" height="35.35" fill="#d6d4db"/><path d="M 212.12 0 A 35.35 35.35 0 0 1 247.47 35.35 L 212.12 35.35L212.12 0" fill="#c8c6cb"/><rect x="247.48" y="0" width="35.35" height="35.35" fill="#655d78"/><path d="M 247.48 35.35 A 35.35 35.35 0 0 0 282.83 0 L 247.48 0L247.48 35.35" fill="#575263"/><rect x="282.83" y="0" width="35.35" height="35.35" fill="#d1cfd7"/><path d="M 282.83 35.35 A 35.35 35.35 0 0 1  318.18 0 L 318.18 35.35L282.83 35.35" fill="#847e93"/><rect x="318.18" y="0" width="35.35" height="35.35" fill="#7a7684"/><polygon points="318.18,0 353.53000000000003,0 318.18,35.35" fill="#b0aeb6"/><rect x="0" y="35.35" width="35.35" height="35.35" fill="#605873"/><polygon points="0,35.35 35.35,70.7 0,70.7" fill="#5a5665"/><rect x="35.35" y="35.35" width="35.35" height="35.35" fill="#dddbe5"/><path d="M 35.35 70.7 A 35.35 35.35 0 0 1  70.7 35.35 L 70.7 70.7L35.35 70.7" fill="#e9e7ee"/><rect x="70.71" y="35.35" width="35.35" height="35.35" fill="#4b4558"/><path d="M 70.71 70.7 A 35.35 35.35 0 0 0 106.06 35.35 L 70.71 35.35L70.71 70.7" fill="#5e5672"/><rect x="106.06" y="35.35" width="35.35" height="35.35" fill="#edecf1"/><path d="M 106.06 70.7 A 35.35 35.35 0 0 0 141.41 35.35 L 106.06 35.35L106.06 70.7" fill="#e8e7ed"/><rect x="141.42" y="35.35" width="35.35" height="35.35" fill="#e1dfe8"/><rect x="141.42" y="35.35" width="35.35" height="35.35" fill="#6d6878"/><rect x="176.77" y="35.35" width="35.35" height="35.35" fill="#edebf1"/><polygon points="176.77,35.35 212.12,35.35 212.12,70.7" fill="#eeedef"/><rect x="212.12" y="35.35" width="35.35" height="35.35" fill="#777281"/><rect x="212.12" y="35.35" width="35.35" height="35.35" fill="#76727f"/><rect x="247.48" y="35.35" width="35.35" height="35.35" fill="#484354"/><path d="M 247.48 70.7 A 35.35 35.35 0 0 1  282.83 35.35 L 247.48 70.7 A 35.35 35.35 0 0 0 282.83 35.35" fill="#dfdde6"/><rect x="282.83" y="35.35" width="35.35" height="35.35" fill="#656171"/><polygon points="318.18,35.35 318.18,70.7 282.83,70.7" fill="#7b758c"/><rect x="318.18" y="35.35" width="35.35" height="35.35" fill="#9a95a7"/><rect x="318.18" y="35.35" width="35.35" height="35.35" fill="#6c6877"/><rect x="0" y="70.71" width="35.35" height="35.35" fill="#9b96a7"/><rect x="0" y="70.71" width="35.35" height="35.35" fill="#fcfcfd"/><rect x="35.35" y="70.71" width="35.35" height="35.35" fill="#eeeef1"/><rect x="35.35" y="70.71" width="35.35" height="35.35" fill="#f3f2f6"/><rect x="70.71" y="70.71" width="35.35" height="35.35" fill="#fefefe"/><polygon points="70.71,70.71 106.06,70.71 70.71,106.06" fill="#494455"/><rect x="106.06" y="70.71" width="35.35" height="35.35" fill="#9996a0"/><polygon points="106.06,70.71 141.41,106.06 106.06,106.06" fill="#8c8894"/><rect x="141.42" y="70.71" width="35.35" height="35.35" fill="#a4a2ab"/><path d="M 141.42 70.71 A 35.35 35.35 0 0 1  176.76999999999998 106.06 L 141.42 70.71 A 35.35 35.35 0 0 0 176.76999999999998 106.06" fill="#f5f4f7"/><rect x="176.77" y="70.71" width="35.35" height="35.35" fill="#575262"/><polygon points="176.77,70.71 212.12,70.71 212.12,106.06" fill="#e3e2e5"/><rect x="212.12" y="70.71" width="35.35" height="35.35" fill="#9a95a7"/><rect x="212.12" y="70.71" width="35.35" height="35.35" fill="#666271"/><rect x="247.48" y="70.71" width="35.35" height="35.35" fill="#f4f4f7"/><path d="M 247.48 106.06 A 35.35 35.35 0 0 0 282.83 70.71 L 247.48 70.71L247.48 106.06" fill="#d3d2d6"/><rect x="282.83" y="70.71" width="35.35" height="35.35" fill="#ebeaec"/><rect x="282.83" y="70.71" width="35.35" height="35.35" fill="#e2e0e9"/><rect x="318.18" y="70.71" width="35.35" height="35.35" fill="#928d9f"/><polygon points="318.18,70.71 353.53000000000003,70.71 353.53000000000003,106.06" fill="#bbb9c0"/><rect x="0" y="106.06" width="35.35" height="35.35" fill="#fefefe"/><path d="M 0 106.06 A 35.35 35.35 0 0 1  35.35 141.41 L 0 106.06 A 35.35 35.35 0 0 0 35.35 141.41" fill="#5e5672"/><rect x="35.35" y="106.06" width="35.35" height="35.35" fill="#e3e0e9"/><rect x="35.35" y="106.06" width="35.35" height="35.35" fill="#fbfbfb"/><rect x="70.71" y="106.06" width="35.35" height="35.35" fill="#e5e2ea"/><polygon points="70.71,106.06 106.06,141.41 70.71,141.41" fill="#f7f7f9"/><rect x="106.06" y="106.06" width="35.35" height="35.35" fill="#f7f7f7"/><path d="M 106.06 141.41 A 35.35 35.35 0 0 0 141.41 106.06 L 106.06 106.06L106.06 141.41" fill="#948fa1"/><rect x="141.42" y="106.06" width="35.35" height="35.35" fill="#f7f7f9"/><rect x="141.42" y="106.06" width="35.35" height="35.35" fill="#675f79"/><rect x="176.77" y="106.06" width="35.35" height="35.35" fill="#efeef0"/><polygon points="176.77,106.06 212.12,141.41 176.77,141.41" fill="#e9e8ec"/><rect x="212.12" y="106.06" width="35.35" height="35.35" fill="#e3e1e9"/><rect x="212.12" y="106.06" width="35.35" height="35.35" fill="#928c9f"/><rect x="247.48" y="106.06" width="35.35" height="35.35" fill="#8d8a95"/><path d="M 247.48 106.06 A 35.35 35.35 0 0 1 282.83 141.41 L 247.48 141.41L247.48 106.06" fill="#433e51"/><rect x="282.83" y="106.06" width="35.35" height="35.35" fill="#d6d5d9"/><rect x="282.83" y="106.06" width="35.35" height="35.35" fill="#4e485b"/><rect x="318.18" y="106.06" width="35.35" height="35.35" fill="#928f99"/><path d="M 318.18 106.06 A 35.35 35.35 0 0 1  353.53000000000003 141.41 L 318.18 106.06 A 35.35 35.35 0 0 0 353.53000000000003 141.41" fill="#cac8ce"/><rect x="0" y="141.42" width="35.35" height="35.35" fill="#665f79"/><polygon points="35.35,141.42 35.35,176.76999999999998 0,176.76999999999998" fill="#96939e"/><rect x="35.35" y="141.42" width="35.35" height="35.35" fill="#a7a4ae"/><polygon points="35.35,141.42 70.7,176.76999999999998 35.35,176.76999999999998" fill="#eae8ec"/><rect x="70.71" y="141.42" width="35.35" height="35.35" fill="#6b6776"/><polygon points="70.71,141.42 106.06,141.42 106.06,176.76999999999998" fill="#79738a"/><rect x="106.06" y="141.42" width="35.35" height="35.35" fill="#bab8be"/><polygon points="141.41,141.42 141.41,176.76999999999998 106.06,176.76999999999998" fill="#aba9b1"/><rect x="141.42" y="141.42" width="35.35" height="35.35" fill="#c6c4ca"/><rect x="141.42" y="141.42" width="35.35" height="35.35" fill="#c5c2cc"/><rect x="176.77" y="141.42" width="35.35" height="35.35" fill="#645c77"/><rect x="176.77" y="141.42" width="35.35" height="35.35" fill="#efedf2"/><rect x="212.12" y="141.42" width="35.35" height="35.35" fill="#fefeff"/><polygon points="247.47,141.42 247.47,176.76999999999998 212.12,176.76999999999998" fill="#bdbbc2"/><rect x="247.48" y="141.42" width="35.35" height="35.35" fill="#5b5667"/><rect x="247.48" y="141.42" width="35.35" height="35.35" fill="#e1dfe4"/><rect x="282.83" y="141.42" width="35.35" height="35.35" fill="#696474"/><path d="M 282.83 176.76999999999998 A 35.35 35.35 0 0 1  318.18 141.42 L 282.83 176.76999999999998 A 35.35 35.35 0 0 0 318.18 141.42" fill="#b5b2ba"/><rect x="318.18" y="141.42" width="35.35" height="35.35" fill="#b2aebb"/><path d="M 318.18 141.42 A 35.35 35.35 0 0 0 353.53000000000003 176.76999999999998 L 353.53000000000003 141.42L318.18 141.42" fill="#a8a6af"/><rect x="0" y="176.77" width="35.35" height="35.35" fill="#dddbe1"/><path d="M 0 176.77 A 35.35 35.35 0 0 1  35.35 212.12 L 0 176.77 A 35.35 35.35 0 0 0 35.35 212.12" fill="#2b2539"/><rect x="35.35" y="176.77" width="35.35" height="35.35" fill="#3f394d"/><path d="M 35.35 176.77 A 35.35 35.35 0 0 1 70.7 212.12 L 35.35 212.12L35.35 176.77" fill="#fcfcfd"/><rect x="70.71" y="176.77" width="35.35" height="35.35" fill="#e7e6ed"/><rect x="70.71" y="176.77" width="35.35" height="35.35" fill="#dddae4"/><rect x="106.06" y="176.77" width="35.35" height="35.35" fill="#85828e"/><polygon points="106.06,176.77 141.41,212.12 106.06,212.12" fill="#3a3448"/><rect x="141.42" y="176.77" width="35.35" height="35.35" fill="#bab8bf"/><rect x="141.42" y="176.77" width="35.35" height="35.35" fill="#7f788e"/><rect x="176.77" y="176.77" width="35.35" height="35.35" fill="#898398"/><rect x="176.77" y="176.77" width="35.35" height="35.35" fill="#8f8a9d"/><rect x="212.12" y="176.77" width="35.35" height="35.35" fill="#3a3449"/><path d="M 212.12 212.12 A 35.35 35.35 0 0 0 247.47 176.77 L 212.12 176.77L212.12 212.12" fill="#eae9ef"/><rect x="247.48" y="176.77" width="35.35" height="35.35" fill="#928f9a"/><polygon points="247.48,176.77 282.83,176.77 247.48,212.12" fill="#d8d7db"/><rect x="282.83" y="176.77" width="35.35" height="35.35" fill="#f9f9fb"/><polygon points="282.83,176.77 318.18,212.12 282.83,212.12" fill="#847e93"/><rect x="318.18" y="176.77" width="35.35" height="35.35" fill="#928e9a"/><rect x="318.18" y="176.77" width="35.35" height="35.35" fill="#e1dee7"/><rect x="0" y="212.12" width="35.35" height="35.35" fill="#817d89"/><polygon points="0,212.12 35.35,212.12 0,247.47" fill="#dbd8e3"/><rect x="35.35" y="212.12" width="35.35" height="35.35" fill="#bebbc6"/><polygon points="35.35,212.12 70.7,212.12 35.35,247.47" fill="#87848f"/><rect x="70.71" y="212.12" width="35.35" height="35.35" fill="#4d475a"/><path d="M 70.71 247.47 A 35.35 35.35 0 0 0 106.06 212.12 L 70.71 212.12L70.71 247.47" fill="#797582"/><rect x="106.06" y="212.12" width="35.35" height="35.35" fill="#e3e1e9"/><path d="M 106.06 247.47 A 35.35 35.35 0 0 1  141.41 212.12 L 141.41 247.47L106.06 247.47" fill="#f8f7f9"/><rect x="141.42" y="212.12" width="35.35" height="35.35" fill="#9691a3"/><rect x="141.42" y="212.12" width="35.35" height="35.35" fill="#eeedf2"/><rect x="176.77" y="212.12" width="35.35" height="35.35" fill="#c5c3c8"/><polygon points="176.77,212.12 212.12,212.12 212.12,247.47" fill="#5f5873"/><rect x="212.12" y="212.12" width="35.35" height="35.35" fill="#a4a1aa"/><path d="M 212.12 212.12 A 35.35 35.35 0 0 1  247.47 247.47 L 212.12 212.12 A 35.35 35.35 0 0 0 247.47 247.47" fill="#d2d0d8"/><rect x="247.48" y="212.12" width="35.35" height="35.35" fill="#c3c2c8"/><rect x="247.48" y="212.12" width="35.35" height="35.35" fill="#d2d1d5"/><rect x="282.83" y="212.12" width="35.35" height="35.35" fill="#c0bec4"/><path d="M 282.83 247.47 A 35.35 35.35 0 0 0 318.18 212.12 L 282.83 212.12L282.83 247.47" fill="#615d6c"/><rect x="318.18" y="212.12" width="35.35" height="35.35" fill="#eae9ef"/><polygon points="353.53000000000003,212.12 353.53000000000003,247.47 318.18,247.47" fill="#c6c3cd"/><rect x="0" y="247.48" width="35.35" height="35.35" fill="#686474"/><polygon points="0,247.48 35.35,247.48 35.35,282.83" fill="#b9b6c2"/><rect x="35.35" y="247.48" width="35.35" height="35.35" fill="#ffffff"/><polygon points="70.7,247.48 70.7,282.83 35.35,282.83" fill="#888296"/><rect x="70.71" y="247.48" width="35.35" height="35.35" fill="#383247"/><rect x="70.71" y="247.48" width="35.35" height="35.35" fill="#f9f9fa"/><rect x="106.06" y="247.48" width="35.35" height="35.35" fill="#a19fa8"/><path d="M 106.06 247.48 A 35.35 35.35 0 0 1  141.41 282.83 L 106.06 247.48 A 35.35 35.35 0 0 0 141.41 282.83" fill="#f3f3f4"/><rect x="141.42" y="247.48" width="35.35" height="35.35" fill="#7a738a"/><polygon points="141.42,247.48 176.76999999999998,282.83 141.42,282.83" fill="#494457"/><rect x="176.77" y="247.48" width="35.35" height="35.35" fill="#f5f4f7"/><path d="M 176.77 247.48 A 35.35 35.35 0 0 1 212.12 282.83 L 176.77 282.83L176.77 247.48" fill="#524c5e"/><rect x="212.12" y="247.48" width="35.35" height="35.35" fill="#e5e3eb"/><path d="M 212.12 247.48 A 35.35 35.35 0 0 0 247.47 282.83 L 247.47 247.48L212.12 247.48" fill="#f3f3f4"/><rect x="247.48" y="247.48" width="35.35" height="35.35" fill="#605c6b"/><path d="M 247.48 247.48 A 35.35 35.35 0 0 1  282.83 282.83 L 247.48 247.48 A 35.35 35.35 0 0 0 282.83 282.83" fill="#dbdadd"/><rect x="282.83" y="247.48" width="35.35" height="35.35" fill="#938ea1"/><path d="M 282.83 247.48 A 35.35 35.35 0 0 0 318.18 282.83 L 318.18 247.48L282.83 247.48" fill="#85818e"/><rect x="318.18" y="247.48" width="35.35" height="35.35" fill="#e2e0e8"/><polygon points="353.53000000000003,247.48 353.53000000000003,282.83 318.18,282.83" fill="#ebe9ef"/><rect x="0" y="282.83" width="35.35" height="35.35" fill="#dedbe5"/><polygon points="0,282.83 35.35,318.18 0,318.18" fill="#fefefe"/><rect x="35.35" y="282.83" width="35.35" height="35.35" fill="#afadb5"/><rect x="35.35" y="282.83" width="35.35" height="35.35" fill="#575263"/><rect x="70.71" y="282.83" width="35.35" height="35.35" fill="#fefefe"/><rect x="70.71" y="282.83" width="35.35" height="35.35" fill="#a9a7af"/><rect x="106.06" y="282.83" width="35.35" height="35.35" fill="#dddbe1"/><rect x="106.06" y="282.83" width="35.35" height="35.35" fill="#766f87"/><rect x="141.42" y="282.83" width="35.35" height="35.35" fill="#a19ea7"/><path d="M 141.42 318.18 A 35.35 35.35 0 0 1  176.76999999999998 282.83 L 141.42 318.18 A 35.35 35.35 0 0 0 176.76999999999998 282.83" fill="#443e52"/><rect x="176.77" y="282.83" width="35.35" height="35.35" fill="#b1adbb"/><polygon points="176.77,282.83 212.12,282.83 212.12,318.18" fill="#84808c"/><rect x="212.12" y="282.83" width="35.35" height="35.35" fill="#9893a5"/><path d="M 212.12 318.18 A 35.35 35.35 0 0 0 247.47 282.83 L 212.12 282.83L212.12 318.18" fill="#504b5b"/><rect x="247.48" y="282.83" width="35.35" height="35.35" fill="#94919b"/><path d="M 247.48 318.18 A 35.35 35.35 0 0 1  282.83 282.83 L 247.48 318.18 A 35.35 35.35 0 0 0 282.83 282.83" fill="#dedde0"/><rect x="282.83" y="282.83" width="35.35" height="35.35" fill="#e8e6ed"/><path d="M 282.83 282.83 A 35.35 35.35 0 0 1 318.18 318.18 L 282.83 318.18L282.83 282.83" fill="#7b748b"/><rect x="318.18" y="282.83" width="35.35" height="35.35" fill="#9792a4"/><polygon points="353.53000000000003,282.83 353.53000000000003,318.18 318.18,318.18" fill="#dedde0"/><rect x="0" y="318.18" width="35.35" height="35.35" fill="#696574"/><rect x="0" y="318.18" width="35.35" height="35.35" fill="#9c99a2"/><rect x="35.35" y="318.18" width="35.35" height="35.35" fill="#c9c7cd"/><path d="M 35.35 318.18 A 35.35 35.35 0 0 0 70.7 353.53000000000003 L 70.7 318.18L35.35 318.18" fill="#a49faf"/><rect x="70.71" y="318.18" width="35.35" height="35.35" fill="#b1adba"/><rect x="70.71" y="318.18" width="35.35" height="35.35" fill="#f8f8fa"/><rect x="106.06" y="318.18" width="35.35" height="35.35" fill="#635e6f"/><rect x="106.06" y="318.18" width="35.35" height="35.35" fill="#9a97a0"/><rect x="141.42" y="318.18" width="35.35" height="35.35" fill="#c4c1cb"/><path d="M 141.42 353.53000000000003 A 35.35 35.35 0 0 1  176.76999999999998 318.18 L 176.76999999999998 353.53000000000003L141.42 353.53000000000003" fill="#ccc9d2"/><rect x="176.77" y="318.18" width="35.35" height="35.35" fill="#e3e1e9"/><path d="M 176.77 318.18 A 35.35 35.35 0 0 1  212.12 353.53000000000003 L 176.77 318.18 A 35.35 35.35 0 0 0 212.12 353.53000000000003" fill="#93909b"/><rect x="212.12" y="318.18" width="35.35" height="35.35" fill="#efeef0"/><path d="M 212.12 318.18 A 35.35 35.35 0 0 1  247.47 353.53000000000003 L 212.12 318.18 A 35.35 35.35 0 0 0 247.47 353.53000000000003" fill="#7f7b89"/><rect x="247.48" y="318.18" width="35.35" height="35.35" fill="#94919c"/><path d="M 247.48 318.18 A 35.35 35.35 0 0 1  282.83 353.53000000000003 L 247.48 318.18 A 35.35 35.35 0 0 0 282.83 353.53000000000003" fill="#93909a"/><rect x="282.83" y="318.18" width="35.35" height="35.35" fill="#f5f5f6"/><polygon points="282.83,318.18 318.18,318.18 318.18,353.53000000000003" fill="#d4d2d9"/><rect x="318.18" y="318.18" width="35.35" height="35.35" fill="#6f6880"/><polygon points="318.18,318.18 353.53000000000003,318.18 318.18,353.53000000000003" fill="#f7f6f9"/><rect x="0" y="353.54" width="35.35" height="35.35" fill="#f6f5f8"/><rect x="0" y="353.54" width="35.35" height="35.35" fill="#e5e2eb"/><rect x="35.35" y="353.54" width="35.35" height="35.35" fill="#fefefe"/><rect x="35.35" y="353.54" width="35.35" height="35.35" fill="#f3f2f4"/><rect x="70.71" y="353.54" width="35.35" height="35.35" fill="#a19dad"/><polygon points="70.71,353.54 106.06,388.89000000000004 70.71,388.89000000000004" fill="#5d5869"/><rect x="106.06" y="353.54" width="35.35" height="35.35" fill="#e0dde7"/><polygon points="106.06,353.54 141.41,388.89000000000004 106.06,388.89000000000004" fill="#fafafa"/><rect x="141.42" y="353.54" width="35.35" height="35.35" fill="#868095"/><rect x="141.42" y="353.54" width="35.35" height="35.35" fill="#f5f5f7"/><rect x="176.77" y="353.54" width="35.35" height="35.35" fill="#76727f"/><rect x="176.77" y="353.54" width="35.35" height="35.35" fill="#69617b"/><rect x="212.12" y="353.54" width="35.35" height="35.35" fill="#e5e3eb"/><path d="M 212.12 353.54 A 35.35 35.35 0 0 1  247.47 388.89000000000004 L 212.12 353.54 A 35.35 35.35 0 0 0 247.47 388.89000000000004" fill="#d1cfd7"/><rect x="247.48" y="353.54" width="35.35" height="35.35" fill="#a6a1b1"/><path d="M 247.48 353.54 A 35.35 35.35 0 0 0 282.83 388.89000000000004 L 282.83 353.54L247.48 353.54" fill="#e9e7ee"/><rect x="282.83" y="353.54" width="35.35" height="35.35" fill="#fdfdfd"/><path d="M 282.83 353.54 A 35.35 35.35 0 0 1 318.18 388.89000000000004 L 282.83 388.89000000000004L282.83 353.54" fill="#e8e6ed"/><rect x="318.18" y="353.54" width="35.35" height="35.35" fill="#9d98a9"/><rect x="318.18" y="353.54" width="35.35" height="35.35" fill="#a6a1b1"/><rect x="0" y="388.89" width="35.35" height="35.35" fill="#e5e3eb"/><polygon points="0,388.89 35.35,388.89 0,424.24" fill="#e4e2ea"/><rect x="35.35" y="388.89" width="35.35" height="35.35" fill="#e1dee7"/><rect x="35.35" y="388.89" width="35.35" height="35.35" fill="#ffffff"/><rect x="70.71" y="388.89" width="35.35" height="35.35" fill="#f5f4f7"/><path d="M 70.71 388.89 A 35.35 35.35 0 0 1  106.06 424.24 L 70.71 388.89 A 35.35 35.35 0 0 0 106.06 424.24" fill="#615975"/><rect x="106.06" y="388.89" width="35.35" height="35.35" fill="#514c5c"/><polygon points="106.06,388.89 141.41,388.89 106.06,424.24" fill="#d3d2d6"/><rect x="141.42" y="388.89" width="35.35" height="35.35" fill="#dfdce6"/><polygon points="141.42,388.89 176.76999999999998,424.24 141.42,424.24" fill="#69617b"/><rect x="176.77" y="388.89" width="35.35" height="35.35" fill="#595465"/><polygon points="176.77,388.89 212.12,388.89 212.12,424.24" fill="#4e495b"/><rect x="212.12" y="388.89" width="35.35" height="35.35" fill="#c2c0c6"/><path d="M 212.12 388.89 A 35.35 35.35 0 0 1 247.47 424.24 L 212.12 424.24L212.12 388.89" fill="#f6f6f8"/><rect x="247.48" y="388.89" width="35.35" height="35.35" fill="#b7b3c0"/><path d="M 247.48 424.24 A 35.35 35.35 0 0 0 282.83 388.89 L 247.48 388.89L247.48 424.24" fill="#dfdce6"/><rect x="282.83" y="388.89" width="35.35" height="35.35" fill="#a3a0aa"/><rect x="282.83" y="388.89" width="35.35" height="35.35" fill="#fcfcfd"/><rect x="318.18" y="388.89" width="35.35" height="35.35" fill="#e2e1e6"/><path d="M 318.18 424.24 A 35.35 35.35 0 0 0 353.53000000000003 388.89 L 318.18 388.89L318.18 424.24" fill="#9994a5"/><rect x="0" y="424.25" width="35.35" height="35.35" fill="#e5e3eb"/><path d="M 0 459.6 A 35.35 35.35 0 0 1  35.35 424.25 L 35.35 459.6L0 459.6" fill="#f1f0f4"/><rect x="35.35" y="424.25" width="35.35" height="35.35" fill="#827c91"/><polygon points="35.35,424.25 70.7,459.6 35.35,459.6" fill="#7e7b87"/><rect x="70.71" y="424.25" width="35.35" height="35.35" fill="#75717e"/><polygon points="70.71,424.25 106.06,459.6 70.71,459.6" fill="#efeef3"/><rect x="106.06" y="424.25" width="35.35" height="35.35" fill="#9d9aa3"/><rect x="106.06" y="424.25" width="35.35" height="35.35" fill="#7a748a"/><rect x="141.42" y="424.25" width="35.35" height="35.35" fill="#373144"/><polygon points="141.42,424.25 176.76999999999998,459.6 141.42,459.6" fill="#ebeaee"/><rect x="176.77" y="424.25" width="35.35" height="35.35" fill="#dedbe5"/><polygon points="176.77,424.25 212.12,459.6 176.77,459.6" fill="#ecebf0"/><rect x="212.12" y="424.25" width="35.35" height="35.35" fill="#e5e4e7"/><rect x="212.12" y="424.25" width="35.35" height="35.35" fill="#e4e1ea"/><rect x="247.48" y="424.25" width="35.35" height="35.35" fill="#524d5d"/><rect x="247.48" y="424.25" width="35.35" height="35.35" fill="#f7f6f7"/><rect x="282.83" y="424.25" width="35.35" height="35.35" fill="#b7b4c0"/><rect x="282.83" y="424.25" width="35.35" height="35.35" fill="#b8b4c1"/><rect x="318.18" y="424.25" width="35.35" height="35.35" fill="#6d667f"/><path d="M 318.18 459.6 A 35.35 35.35 0 0 1  353.53000000000003 424.25 L 318.18 459.6 A 35.35 35.35 0 0 0 353.53000000000003 424.25" fill="#403a4e"/></g></svg>